Coordinates
version=1
nRows=49
nColumns=12
inDegrees=yes

Units are S.I. units (second, meters, Newtons, ...)
Angles are in degrees

endheader
time	SC_y	SC_z	SC_x	AC_y	AC_z	AC_x	GH_y	GH_z	GH_yy	EL_x	PS_y
       0.0              -25.12          4.898           12.6          31.03         -16.14         -17.92          97.45          54.75         -134.5          73.35          76.99
   0.04423              -25.12          4.902          12.61          31.03         -16.14         -17.92          97.45          54.75         -134.4          73.35           77.0
   0.08847              -25.12          4.907          12.62          31.04         -16.14         -17.92          97.44          54.75         -134.4          73.36          77.01
    0.1327              -25.12          4.911          12.63          31.04         -16.13         -17.92          97.44          54.75         -134.4          73.36          77.01
    0.1769              -25.13          4.916          12.64          31.05         -16.13         -17.92          97.44          54.75         -134.3          73.37          77.02
    0.2212              -25.13          4.921          12.65          31.05         -16.13         -17.92          97.44          54.75         -134.3          73.37          77.03
    0.2654              -25.13          4.927          12.66          31.06         -16.12         -17.92          97.44          54.75         -134.2          73.38          77.04
    0.3096              -25.13          4.933          12.67          31.07         -16.12         -17.92          97.44          54.75         -134.1          73.38          77.04
    0.3539              -25.13          4.939          12.68          31.07         -16.12         -17.92          97.44          54.75         -134.1          73.39          77.05
    0.3981              -25.14          4.946           12.7          31.08         -16.11         -17.91          97.43          54.75         -134.0          73.39          77.06
    0.4423              -25.14          4.953          12.71          31.09         -16.11         -17.91          97.43          54.75         -133.9           73.4          77.08
    0.4866              -25.14          4.961          12.73           31.1          -16.1         -17.91          97.43          54.75         -133.9          73.41          77.09
    0.5308              -25.15          4.969          12.75          31.11          -16.1         -17.91          97.43          54.75         -133.8          73.42           77.1
     0.575              -25.15          4.978          12.77          31.12         -16.09         -17.91          97.42          54.75         -133.7          73.43          77.11
    0.6193              -25.16          4.988          12.79          31.13         -16.08         -17.91          97.42          54.75         -133.6          73.44          77.13
    0.6635              -25.16          4.999          12.81          31.14         -16.08         -17.91          97.42          54.75         -133.5          73.45          77.15
    0.7077              -25.16           5.01          12.83          31.16         -16.07         -17.91          97.41          54.75         -133.4          73.46          77.16
     0.752              -25.17          5.023          12.86          31.17         -16.06         -17.91          97.41          54.75         -133.3          73.47          77.18
    0.7962              -25.18          5.037          12.89          31.19         -16.05          -17.9          97.41          54.75         -133.1          73.49           77.2
    0.8404              -25.18          5.052          12.92          31.21         -16.04          -17.9           97.4          54.75         -133.0           73.5          77.23
    0.8847              -25.19          5.068          12.96          31.22         -16.03          -17.9           97.4          54.75         -132.8          73.52          77.25
    0.9289               -25.2          5.087           13.0          31.25         -16.02          -17.9          97.39          54.75         -132.6          73.54          77.28
    0.9731               -25.2          5.107          13.04          31.27         -16.01          -17.9          97.39          54.75         -132.4          73.56          77.31
     1.017              -25.21          5.129          13.09          31.29         -15.99         -17.89          97.38          54.75         -132.2          73.58          77.34
     1.062              -25.22          5.154          13.14          31.32         -15.98         -17.89          97.37          54.75         -132.0           73.6          77.38
     1.106              -25.24          5.182           13.2          31.36         -15.96         -17.89          97.36          54.75         -131.7          73.63          77.42
      1.15              -25.25          5.213          13.26          31.39         -15.94         -17.88          97.36          54.75         -131.4          73.66          77.47
     1.194              -25.26          5.248          13.34          31.43         -15.92         -17.88          97.35          54.75         -131.0           73.7          77.52
     1.239              -25.28          5.287          13.42          31.48         -15.89         -17.87          97.33          54.75         -130.7          73.74          77.58
     1.283               -25.3          5.332          13.51          31.53         -15.86         -17.87          97.32          54.75         -130.2          73.78          77.65
     1.327              -25.32          5.383          13.62          31.59         -15.83         -17.86          97.31          54.76         -129.7          73.83          77.73
     1.371              -25.34          5.442          13.74          31.66         -15.79         -17.86          97.29          54.76         -129.1          73.89          77.82
     1.415              -25.37          5.509          13.89          31.74         -15.75         -17.85          97.27          54.76         -128.5          73.96          77.92
      1.46               -25.4          5.588          14.05          31.83          -15.7         -17.84          97.25          54.76         -127.7          74.04          78.04
     1.504              -25.44           5.68          14.25          31.93         -15.64         -17.83          97.22          54.76         -126.8          74.13          78.18
     1.548              -25.49          5.789          14.48          32.06         -15.57         -17.81          97.19          54.76         -125.7          74.24          78.35
     1.592              -25.54          5.918          14.75          32.21         -15.49          -17.8          97.15          54.76         -124.4          74.36          78.54
     1.637               -25.6          6.072          15.07          32.39         -15.39         -17.78           97.1          54.76         -122.9          74.52          78.78
     1.681              -25.68          6.259          15.47          32.61         -15.27         -17.76          97.05          54.76         -121.1          74.71          79.06
     1.725              -25.78          6.488          15.95          32.87         -15.13         -17.73          96.98          54.77         -118.8          74.93          79.41
     1.769              -25.89           6.77          16.55           33.2         -14.94          -17.7           96.9          54.77         -116.1          75.21          79.84
     1.814              -26.04          7.122          17.29          33.61         -14.72         -17.65           96.8          54.77         -112.6          75.57          80.37
     1.858              -26.22          7.565          18.22          34.12         -14.44          -17.6          96.67          54.78         -108.2          76.01          81.05
     1.902              -26.46          8.128          19.41          34.77         -14.08         -17.53           96.5          54.78         -102.7          76.57          81.91
     1.946              -26.76          8.849          20.93          35.61         -13.61         -17.45          96.29          54.79         -95.59          77.29           83.0
      1.99              -27.14          9.774          22.88          36.68         -13.02         -17.34          96.02           54.8         -86.48          78.21          84.41
     2.035              -27.63          10.96          25.37          38.05         -12.27         -17.19          95.67          54.81         -74.85          79.39          86.21
     2.079              -28.25          12.44          28.51          39.77         -11.32         -17.02          95.24          54.82         -60.22          80.87          88.47
     2.123               -29.0          14.25          32.32          41.87         -10.16          -16.8          94.71          54.84         -42.39          82.68          91.22
